<svg fill="none" height="15" viewBox="0 0 20 15" width="20" xmlns="http://www.w3.org/2000/svg"><path clip-rule="evenodd" d="m7.935 9.6958-.00063-5.65924 5.40373 2.83938zm11.865-6.6399s-.1956-1.3879-.795-1.99908c-.7606-.802524-1.6131-.806308-2.0038-.852886-2.7987-.20393696-6.9968-.203934-6.9968-.203934h-.00877s-4.19813-.00000296-6.99688.203934c-.39125.046578-1.24312.050362-2.004373.852886-.599375.61118-.794379 1.99908-.794379 1.99908s-.199998 1.63024-.199998 3.25984v1.52827c0 1.63023.199998 3.25979.199998 3.25979s.195004 1.3879.794379 1.9991c.761253.8026 1.760623.7774 2.205623.8611 1.6.1548 6.8.2027 6.8.2027s4.2025-.0063 7.0012-.2103c.3907-.0472 1.2432-.0509 2.0038-.8535.5994-.6112.795-1.9991.795-1.9991s.2-1.62956.2-3.25979v-1.52827c0-1.6296-.2-3.25984-.2-3.25984z" fill="#ce1312" fill-rule="evenodd"/></svg>