<svg width="480" height="480" viewBox="0 0 480 480" fill="none" xmlns="http://www.w3.org/2000/svg">
<g clip-path="url(#clip0_59_93)">
<rect width="480" height="480" fill="white"/>
<g clip-path="url(#clip1_59_93)">
<path d="M225.806 169.282C227.602 166.169 230.375 163.736 233.695 162.361C237.015 160.985 240.696 160.743 244.167 161.673C247.638 162.603 250.705 164.653 252.892 167.504C255.08 170.355 256.265 173.849 256.264 177.442V238.45C256.265 238.606 256.318 238.756 256.413 238.879C256.508 239.002 256.641 239.09 256.791 239.13C256.94 239.17 257.1 239.161 257.243 239.102C257.387 239.044 257.508 238.94 257.587 238.806L330.569 111.504L242.782 60.7625C241.916 60.263 240.935 60 239.936 60C238.937 60 237.955 60.263 237.09 60.7625L86.3239 147.917C85.4595 148.416 84.7415 149.133 84.242 149.997C83.7425 150.862 83.4791 151.842 83.478 152.84V327.148C83.4791 328.146 83.7425 329.127 84.242 329.991C84.7415 330.855 85.4595 331.573 86.3239 332.072L120.51 351.843L225.806 169.282Z" fill="#217BCE"/>
<path d="M396.522 152.833C396.519 151.836 396.255 150.857 395.756 149.995C395.257 149.132 394.539 148.415 393.676 147.917L358.928 127.839L254.13 310.543C252.206 313.889 249.162 316.447 245.535 317.766C241.908 319.085 237.932 319.079 234.308 317.75C231.137 316.53 228.414 314.37 226.507 311.558C224.599 308.746 223.597 305.417 223.636 302.02V241.069C223.635 240.913 223.582 240.763 223.487 240.64C223.392 240.517 223.26 240.429 223.11 240.389C222.96 240.348 222.801 240.358 222.657 240.417C222.513 240.475 222.392 240.579 222.313 240.713L148.741 368.186L237.154 419.24C238.019 419.74 239.001 420.003 240 420.003C240.999 420.003 241.981 419.74 242.846 419.24L393.676 332.079C394.539 331.58 395.257 330.864 395.756 330.001C396.255 329.138 396.519 328.16 396.522 327.163V152.833Z" fill="#217BCE"/>
</g>
</g>
<defs>
<clipPath id="clip0_59_93">
<rect width="480" height="480" fill="white"/>
</clipPath>
<clipPath id="clip1_59_93">
<rect width="360" height="360" fill="white" transform="translate(60 60)"/>
</clipPath>
</defs>
</svg>
