<?xml version="1.0" encoding="utf-8"?>
<!-- Generator: Adobe Illustrator 27.2.0, SVG Export Plug-In . SVG Version: 6.00 Build 0)  -->
<svg version="1.1" id="レイヤー_1" xmlns="http://www.w3.org/2000/svg" xmlns:xlink="http://www.w3.org/1999/xlink" x="0px"
	 y="0px" viewBox="0 0 800 280" style="enable-background:new 0 0 800 280;" xml:space="preserve">
<style type="text/css">
	.st0{fill:#0828A5;}
	.st1{fill:#231815;}
</style>
<g>
	<g>
		<path class="st0" d="M86.7,148.4c4.6,0,8.3-3.6,8.3-8.3c0-4.8-3.8-8.3-8.3-8.3s-8.3,3.6-8.3,8.3C78.3,144.7,82.1,148.4,86.7,148.4
			z"/>
		<path class="st0" d="M86.7,167.6c4.2,0,7.5-3,7.7-6.7c0-4-3.2-7.1-7.7-7.1s-7.9,3.2-7.7,7.1C79.1,164.7,82.5,167.6,86.7,167.6z"/>
		<path class="st0" d="M86.7,192c3.2,0,5.7-1.4,5.9-3.4c0.2-2-2.6-3.6-5.9-3.6s-6.1,1.6-5.9,3.6C80.7,190.6,83.5,192,86.7,192z"/>
		<path class="st0" d="M86.7,182.1c3.8,0,6.7-2.2,6.9-5c0.2-3-2.8-5.3-6.9-5.3c-4,0-6.9,2.4-6.9,5.3
			C79.9,179.9,82.9,182.1,86.7,182.1z"/>
		<path class="st0" d="M111,168.6c-1.4-2.6-5-3.2-8.7-1.2c-3.6,2.2-5,5.5-3.4,8.1c1.6,2.4,5.2,2.6,8.5,0.8
			C110.8,174.6,112.4,171.4,111,168.6z"/>
		<path class="st0" d="M99.7,181.1c-3.6,0.4-6.5,2.6-6.7,4.8c-0.2,2.2,2.4,3.6,5.5,3.2c3.2-0.4,5.9-2.2,6.5-4.4
			C105.5,182.3,103.3,180.7,99.7,181.1z"/>
		<path class="st0" d="M86.7,198c2.8,0,5-0.8,5.2-2s-2.2-2.2-5.2-2.2c-3,0-5.3,1-5.2,2.2C81.5,197.2,83.9,198,86.7,198z"/>
		<path class="st0" d="M128.7,140.1c0-3.8-2.2-6.7-5-6.9c-3-0.2-5.3,2.8-5.3,6.9c0,4,2.4,6.9,5.3,6.9
			C126.5,146.6,128.7,143.9,128.7,140.1z"/>
		<path class="st0" d="M144.5,140.1c0-2.8-0.8-5-2-5.2c-1.2-0.2-2.2,2.2-2.2,5.2c0,3,1,5.3,2.2,5.2
			C143.7,145.1,144.5,142.9,144.5,140.1z"/>
		<path class="st0" d="M117.8,180.9c-2.6,0.8-5.5,3.2-6.1,5c-0.6,2,1,2.6,3.6,2c2.4-0.8,5-2.8,5.7-4.8
			C121.5,181.3,120.3,180.3,117.8,180.9z"/>
		<path class="st0" d="M115.2,164.7c-2.6-1.4-3.2-5-1.2-8.7c2.2-3.6,5.5-5,8.1-3.4c2.4,1.6,2.6,5.2,0.8,8.5
			C121.1,164.3,118,165.9,115.2,164.7z"/>
		<path class="st0" d="M127.7,153.2c0.4-3.6,2.6-6.5,4.8-6.7c2.2-0.2,3.6,2.4,3.2,5.5s-2.2,5.9-4.4,6.5
			C128.9,158.9,127.3,156.7,127.7,153.2z"/>
		<path class="st0" d="M127.5,171.2c0.8-2.6,3.2-5.5,5-6.1c2-0.6,2.6,1,2,3.4c-0.8,2.4-2.8,5-4.8,5.7
			C127.9,175,126.9,173.8,127.5,171.2z"/>
		<path class="st0" d="M86.7,97.9c3.8,0,6.7,2.2,6.9,5c0.2,3-2.8,5.3-6.9,5.3c-4,0-6.9-2.4-6.9-5.3C79.9,100.1,82.9,97.9,86.7,97.9z
			"/>
		<path class="st0" d="M111,111.4c-1.4,2.6-5,3.2-8.7,1.2c-3.6-2.2-5-5.5-3.4-8.1c1.6-2.4,5.2-2.6,8.5-0.8
			C110.8,105.4,112.4,108.8,111,111.4z"/>
		<path class="st0" d="M99.7,99.1c-3.6-0.4-6.5-2.6-6.7-4.8c-0.2-2.2,2.4-3.6,5.5-3.2c3.2,0.4,5.9,2.2,6.5,4.4
			C105.5,97.9,103.3,99.3,99.7,99.1z"/>
		<path class="st0" d="M86.7,82c2.8,0,5,0.8,5.2,2c0.2,1.2-2.2,2.2-5.2,2.2c-3,0-5.3-1-5.2-2.2C81.5,82.8,83.9,82,86.7,82z"/>
		<path class="st0" d="M117.8,99.1c-2.6-0.8-5.5-3.2-6.1-5c-0.6-2,1-2.6,3.6-2c2.4,0.8,5,2.8,5.7,4.8
			C121.5,98.7,120.3,99.9,117.8,99.1z"/>
		<path class="st0" d="M115.2,115.5c-2.6,1.4-3.2,5-1.2,8.7c2.2,3.6,5.5,5,8.1,3.4c2.4-1.6,2.6-5.2,0.8-8.5
			C121.1,115.9,118,114.3,115.2,115.5z"/>
		<path class="st0" d="M127.7,126.8c0.4,3.6,2.6,6.5,4.8,6.7c2.2,0.2,3.6-2.4,3.2-5.5c-0.4-3.2-2.2-5.9-4.4-6.5
			C128.9,121.1,127.3,123.3,127.7,126.8z"/>
		<path class="st0" d="M127.5,109c0.8,2.6,3.2,5.5,5,6.1c2,0.6,2.6-1,2-3.4c-0.8-2.4-2.8-5-4.8-5.7C127.9,105,126.9,106.2,127.5,109
			z"/>
		<path class="st0" d="M62.1,168.6c1.4-2.6,5-3.2,8.7-1.2c3.6,2.2,5,5.5,3.4,8.1c-1.6,2.4-5.2,2.6-8.5,0.8
			C62.3,174.6,60.9,171.4,62.1,168.6z"/>
		<path class="st0" d="M73.4,181.1c3.6,0.4,6.5,2.6,6.7,4.8s-2.4,3.6-5.5,3.2c-3.2-0.4-5.9-2.2-6.5-4.4
			C67.6,182.3,69.8,180.7,73.4,181.1z"/>
		<path class="st0" d="M44.4,140.1c0-3.8,2.2-6.7,5-6.9c3-0.2,5.3,2.8,5.3,6.9c0,4-2.4,6.9-5.3,6.9
			C46.6,146.6,44.4,143.9,44.4,140.1z"/>
		<path class="st0" d="M28.6,140.1c0-2.8,0.8-5,2-5.2c1.2-0.2,2.2,2.2,2.2,5.2c0,3-1,5.3-2.2,5.2C29.4,145.1,28.6,142.9,28.6,140.1z
			"/>
		<path class="st0" d="M55.3,180.9c2.6,0.8,5.5,3.2,6.1,5c0.6,2-1,2.6-3.6,2c-2.4-0.8-5-2.8-5.7-4.8
			C51.6,181.3,52.8,180.3,55.3,180.9z"/>
		<path class="st0" d="M57.9,164.7c2.6-1.4,3.2-5,1.2-8.7c-2.2-3.6-5.5-5-8.1-3.4c-2.4,1.6-2.6,5.2-0.8,8.5
			C52,164.3,55.3,165.9,57.9,164.7z"/>
		<path class="st0" d="M45.6,153.2c-0.4-3.6-2.6-6.5-4.8-6.7c-2.2-0.2-3.6,2.4-3.2,5.5c0.4,3.2,2.2,5.9,4.4,6.5
			C44.2,158.9,45.8,156.7,45.6,153.2z"/>
		<path class="st0" d="M45.6,171.2c-0.8-2.6-3.2-5.5-5-6.1c-2-0.6-2.6,1-2,3.4c0.8,2.6,2.8,5,4.6,5.7
			C45.2,175,46.4,173.8,45.6,171.2z"/>
		<path class="st0" d="M62.1,111.4c1.4,2.6,5,3.2,8.7,1.2c3.6-2.2,5-5.5,3.4-8.1c-1.6-2.4-5.2-2.6-8.5-0.8
			C62.3,105.4,60.9,108.8,62.1,111.4z"/>
		<path class="st0" d="M73.4,99.1c3.6-0.4,6.5-2.6,6.7-4.8c0.2-2.2-2.4-3.6-5.5-3.2c-3.2,0.4-5.9,2.2-6.5,4.4
			C67.6,97.9,69.8,99.3,73.4,99.1z"/>
		<path class="st0" d="M55.3,99.1c2.6-0.8,5.5-3.2,6.1-5c0.6-2-1-2.6-3.6-2c-2.4,0.8-5,2.8-5.7,4.8C51.6,98.7,52.8,99.9,55.3,99.1z"
			/>
		<path class="st0" d="M57.9,115.5c2.6,1.4,3.2,5,1.2,8.7c-2.2,3.6-5.5,5-8.1,3.4c-2.4-1.6-2.6-5.2-0.8-8.5
			C52,115.9,55.3,114.3,57.9,115.5z"/>
		<path class="st0" d="M45.6,126.8c-0.4,3.6-2.6,6.5-4.8,6.7s-3.6-2.4-3.2-5.5c0.4-3.2,2.2-5.9,4.4-6.5
			C44.2,121.1,45.8,123.3,45.6,126.8z"/>
		<path class="st0" d="M45.6,109c-0.8,2.6-3.2,5.5-5,6.1c-2,0.6-2.6-1-2-3.4c0.8-2.6,2.8-5.2,4.6-5.9C45.2,105,46.4,106.2,45.6,109z
			"/>
	</g>
	<g>
		<path class="st0" d="M226.9,161.9v-0.2c2-1.4,3.8-2.8,5.3-4.6c4-4.6,6.1-10.7,6.1-17c0-14.1-10.7-28.3-28.3-28.3
			c-17.8,0-28.3,14.3-28.3,28.3c0,14.1,10.7,28.3,28.3,28.3h32.1v-6.5H226.9z M189.7,140.1c0-11.1,7.7-21.4,20.4-21.4
			c12.5,0,20.4,10.3,20.4,21.4c0,11.1-7.7,21.4-20.4,21.4C197.4,161.3,189.7,151.2,189.7,140.1z"/>
		<path class="st1" d="M325,161.9v-23.2c0-7.7-6.1-13.3-16.8-13.3c-6.5,0-11.5,2.2-16.2,6.1l4.2,4.4c3.2-3.2,7.5-5,11.7-5
			c7.1,0,10.5,3.2,10.5,8.3v3.8H309c-12.5,0-19.2,6.3-19.2,13.9c0,6.7,5.9,12.5,15.3,12.5c5.9,0,10.5-2.4,13.5-6.3h0.2
			c0.2,2.2,0.4,4,0.8,5.3h6.1C325,166.5,325,163.5,325,161.9z M318.5,152.2c0,5.9-5.3,11.5-12.1,11.5c-6.7,0-9.5-3.2-9.5-6.7
			c0-4.6,4.4-8.7,15.1-8.7h6.5V152.2z"/>
		<path class="st1" d="M658.9,161.9v-23.2c0-7.7-6.1-13.3-16.8-13.3c-6.5,0-11.5,2.2-16.2,6.1l4.2,4.4c3.2-3.2,7.5-5,11.7-5
			c7.1,0,10.5,3.2,10.5,8.3v3.8h-9.5c-12.5,0-19.2,6.3-19.2,13.9c0,6.7,5.9,12.5,15.3,12.5c5.9,0,10.5-2.4,13.5-6.3h0.2
			c0.2,2.2,0.4,4,0.8,5.3h6.1C658.9,166.5,658.9,163.5,658.9,161.9z M652.3,152.2c0,5.9-5.3,11.5-12.3,11.5c-6.7,0-9.5-3.2-9.5-6.7
			c0-4.6,4.4-8.7,15.1-8.7h6.5v4H652.3z"/>
		<path class="st1" d="M353.3,125.4c-5.7,0-9.9,2.6-12.3,7.3h-0.2v-6.3h-6.9v42h6.9v-24.2c0-7.1,3.4-12.9,10.3-12.9
			c6.7,0,10.7,4.6,10.7,10.5v26.5h6.9v-26.9C369,132.6,362.8,125.4,353.3,125.4z"/>
		<path class="st1" d="M275.3,126.2v24.2c0,7.1-3.4,12.9-10.3,12.9c-6.7,0-10.7-4.6-10.7-10.5v-26.5h-6.9v26.9c0,8.7,5.9,16,15.7,16
			c5.7,0,9.9-2.6,12.3-7.3h0.2v6.3h6.9v-42H275.3z"/>
		<path class="st1" d="M394.9,163.3c-3.6,0-5.5-1.8-5.5-5.9v-25h10.1v-6.1h-10.1v-10.5h-6.9v10.5h-8.1v6.1h8.1v25.6
			c0,6.9,4.6,11.5,12.1,11.5c2,0,4-0.6,5.3-1.4v-5.9C398.3,162.9,396.9,163.3,394.9,163.3z"/>
		<path class="st1" d="M423.3,144.3c-6.3-1.8-7.9-4.4-7.9-7.1c0-2.6,2.4-5.3,6.7-5.3c3.2,0,5.7,1.6,7.3,3.8l5.5-4.2
			c-3-3.8-7.3-6.1-12.7-6.1c-8.3,0-14.1,6.1-14.1,11.9c0,5.3,3.6,9.9,11.7,12.5c6.9,2.2,8.9,4.8,8.9,7.7c0,2.8-2.6,5.2-7.1,5.2
			c-3.4,0-6.7-1.4-9.7-4.4l-5.3,4.4c5,5,9.7,6.5,16.4,6.5c6.1,0,12.9-4.6,12.9-12.1C435.8,151.6,432.2,147,423.3,144.3z"/>
		<path class="st1" d="M565.5,135.5l5.5-4.2c-3-3.8-7.3-6.1-12.7-6.1c-8.3,0-14.1,6.1-14.1,11.9c0,5.3,3.4,9.9,11.7,12.5
			c6.9,2.2,8.9,4.8,8.9,7.7c0,2.8-2.6,5.2-7.1,5.2c-3.4,0-6.7-1.4-9.7-4.4l-5.3,4.8c5,5,9.7,6.5,16.4,6.5c6.1,0,12.9-4.6,12.9-12.1
			c0-5.7-3.6-10.3-12.5-12.9c-6.3-1.8-7.9-4.4-7.9-7.1c0-2.6,2.4-5.3,6.7-5.3C561.4,132,564,133.6,565.5,135.5z"/>
		<path class="st0" d="M484.7,168.4h9.3l-15.7-25.4c8.7-1.4,13.7-6.9,13.7-14.7c0-9.1-6.5-15.5-18.4-15.5h-18.8v55.3h7.5v-24.2h8.3
			L484.7,168.4z M462.3,119.7h9.9c8.5,0,11.7,3.2,11.7,8.9c0,5.7-3.4,8.9-11.7,8.9h-9.9V119.7z"/>
		<path class="st1" d="M755.9,125.4c-5.7,0-9.9,2.6-12.3,7.3h-0.2v-25.6h-6.9v61.2h6.9v-24.2c0-7.1,3.4-12.9,10.3-12.9
			c6.7,0,10.7,4.6,10.7,10.5v26.5h6.9v-26.9C771.6,132.6,765.7,125.4,755.9,125.4z"/>
		<path class="st1" d="M676.3,132.6h-0.4v-6.3H669v42h6.9v-24c0-7.1,4-13.3,14.1-10.9l0.4-7.5C684,124.2,678.9,127.2,676.3,132.6z"
			/>
		<path class="st1" d="M537.4,149.8V147c0-11.9-7.5-21.6-20.4-21.6c-11.9,0-21,10.7-21,22s8.9,22,21,22c8.3,0,13.3-3.2,17.2-8.1
			l-5.3-4.2c-2.2,3.8-6.9,5.9-11.9,5.9c-5.9,0-12.5-5.5-13.7-13.3C503.3,149.8,537.4,149.8,537.4,149.8z M517,131.2
			c7.5,0,12.1,4.8,13.1,13.1h-26.5C504.9,136.5,511.1,131.2,517,131.2z"/>
		<path class="st1" d="M618.8,149.8V147c0-11.9-7.5-21.6-20.4-21.6c-11.9,0-21,10.7-21,22s8.9,22,21,22c8.3,0,13.3-3.2,17.2-8.1
			l-5.3-4.2c-2.2,3.8-6.9,5.9-11.9,5.9c-5.9,0-12.5-5.5-13.7-13.3C584.8,149.8,618.8,149.8,618.8,149.8z M598.6,131.2
			c7.5,0,12.1,4.8,13.1,13.1h-26.5C586.3,136.5,592.5,131.2,598.6,131.2z"/>
		<path class="st1" d="M714.1,163.7c-7.7,0-13.7-7.1-13.7-16.2s5.9-16.2,13.7-16.2c4.2,0,7.5,1.4,9.7,4l5-4.6
			c-3.4-3.4-8.5-5.3-14.7-5.3c-12.7,0-20.8,9.9-20.8,22c0,12.1,8.1,22,20.8,22c6.1,0,11.3-2,14.7-5.3l-5-4.6
			C721.7,162.3,718.3,163.7,714.1,163.7z"/>
	</g>
</g>
</svg>
