<svg fill="none" height="43" viewBox="0 0 51 43" width="51" xmlns="http://www.w3.org/2000/svg" xmlns:xlink="http://www.w3.org/1999/xlink"><clipPath id="a"><path d="m0 0h51v43h-51z"/></clipPath><g clip-path="url(#a)"><path d="m50.378 4.91431h-49.756052v12.28569h49.756052z" fill="#008dd8"/><g fill="#002a3e"><path d="m4.97561 4.91431h-4.97561v12.28569h4.97561z"/><path d="m33.7596 4.91429-3.284-4.91429h-9.9512l-3.0848 4.91429z"/><path d="m51 4.91431h-4.9756v12.28569h4.9756z"/></g><path d="m39.8048 17.2h-28.6097v25.8h28.6097z" fill="#008dd8"/><path d="m11.1951 17.2-11.1951 18.4286 11.1951 7.3714" fill="#0073d9"/><path d="m4.07411 38.3113 7.12099-12.182v-8.9293l-11.1951 18.4286z" fill="#002a3e"/><path d="m39.8049 17.2 11.1952 18.4286-11.1952 7.3714" fill="#0073d9"/><path d="m46.9259 38.3113-7.121-12.182v-8.9293l11.1952 18.4286z" fill="#002a3e"/><g fill="#e8392b"><path d="m21.653 13.1932-1.7502-1.7286-5.834 5.7621 1.7502 1.7287z"/><path d="m18.9348 20.261 1.7503-1.7287-2.4752-2.4446-1.7502 1.7286z"/><path d="m21.1629 18.0604 1.7502-1.7287-2.4752-2.4446-1.7502 1.7286z"/><path d="m24.3221 16.8533 1.7502-1.7287-4.9317-4.8709-1.7502 1.7287z"/><path d="m36.1984 14.2659v-2.4447h-9.0261v2.4447z"/><path d="m30.3878 22.4016v-2.4447h-9.026v2.4447z"/><path d="m24.6373 32.8967h2.4751v-8.9148h-2.4751z"/><path d="m34.73 26.3234v-2.4446h-17.7105v2.4446z"/><path d="m27.1415 32.8966v-2.4446h-5.7797v2.4446z"/><path d="m36.1985 14.2355-1.7503-1.7287-4.6022 4.5456 1.7502 1.7286z"/><path d="m34.9756 24.238 1.7502-1.7286-10.4673-10.3384-1.7503 1.7287z"/><path d="m27.9818 13.8997-1.7502-1.7286-10.4674 10.3383 1.7502 1.7287z"/><path d="m21.7846 28.4716-1.7502-1.7287-4.1361 4.0851 1.7502 1.7287z"/><path d="m33.2702 32.5566 1.7502-1.7286-4.1361-4.0851-1.7502 1.7286z"/></g></g></svg>