<svg fill="none" height="24" viewBox="0 0 25 24" width="25" xmlns="http://www.w3.org/2000/svg"><path clip-rule="evenodd" d="m12.5 0c-6.90625 0-12.5 5.50583-12.5 12.3035 0 5.4443 3.57812 10.0428 8.54688 11.673.625.1077.85937-.2615.85937-.5844 0-.2922-.01563-1.2611-.01563-2.2916-3.14062.5691-3.95312-.7535-4.20312-1.4456-.14062-.3537-.75-1.4457-1.28125-1.7379-.4375-.2307-1.0625-.7997-.01563-.8151.98438-.0154 1.6875.892 1.92188 1.2611 1.125 1.8609 2.92188 1.338 3.64062 1.0151.10938-.7998.4375-1.3381.79688-1.6456-2.78125-.3076-5.6875-1.3688-5.6875-6.0749 0-1.338.48438-2.44533 1.28125-3.30658-.125-.30759-.5625-1.5687.125-3.26044 0 0 1.04687-.32296 3.4375 1.26112.99995-.27683 2.06255-.41525 3.12505-.41525s2.125.13842 3.125.41525c2.3906-1.59946 3.4375-1.26112 3.4375-1.26112.6874 1.69174.25 2.95285.125 3.26044.7968.86125 1.2812 1.95318 1.2812 3.30658 0 4.7215-2.9219 5.7673-5.7031 6.0749.4531.3844.8437 1.1227.8437 2.2761 0 1.6456-.0156 2.9682-.0156 3.3835 0 .3229.2344.7074.8594.5844 2.4815-.8246 4.6377-2.3943 6.1653-4.4883s2.3496-4.6068 2.3503-7.1847c0-6.79767-5.5938-12.3035-12.5-12.3035z" fill="#fff" fill-rule="evenodd"/></svg>