<svg fill="none" height="30" viewBox="0 0 30 30" width="30" xmlns="http://www.w3.org/2000/svg"><rect height="27" rx="13.5" stroke="#333" stroke-width="3" width="27" x="1.5" y="1.5"/><path clip-rule="evenodd" d="m15.0001 1.71436c-7.34039 0-13.28574 5.8991-13.28574 13.18234 0 5.8332 3.80303 10.7601 9.08414 12.5068.6642.1153.9134-.2802.9134-.6262 0-.3131-.0166-1.3512-.0166-2.4552-3.33809.6097-4.20166-.8074-4.46737-1.5489-.14947-.379-.79715-1.549-1.36179-1.8621-.465-.2471-1.12928-.8568-.01661-.8733 1.04625-.0165 1.79358.9557 2.04268 1.3512 1.19572 1.9938 3.10559 1.4336 3.86949 1.0876.1162-.8569.465-1.4336.8469-1.7632-2.95603-.3295-6.04496-1.4665-6.04496-6.5088 0-1.4336.51482-2.62 1.36179-3.5427-.13286-.3296-.59786-1.68078.13285-3.49335 0 0 1.11268-.34603 3.65362 1.35119 1.0628-.2966 2.1921-.4449 3.3214-.4449s2.2586.1483 3.3214.4449c2.5409-1.7137 3.6536-1.35119 3.6536-1.35119.7307 1.81257.2657 3.16375.1328 3.49335.847.9227 1.3618 2.0927 1.3618 3.5427 0 5.0588-3.1055 6.1793-6.0616 6.5088.4816.412.8968 1.2029.8968 2.4387 0 1.7632-.0166 3.1803-.0166 3.6252 0 .346.2491.758.9134.6262 2.6375-.8835 4.9293-2.5654 6.5529-4.8089 1.6236-2.2436 2.4973-4.9359 2.498-7.6979 0-7.28324-5.9454-13.18234-13.2857-13.18234z" fill="#333" fill-rule="evenodd"/></svg>