<svg fill="none" height="30" viewBox="0 0 30 30" width="30" xmlns="http://www.w3.org/2000/svg"><rect fill="#1da1f2" height="30" rx="15" width="30"/><path d="m11.9302 22.7143c7.1159 0 11.008-5.6065 11.008-10.4685 0-.1593 0-.3178-.0113-.4756.7572-.5208 1.4108-1.1657 1.9302-1.90446-.7061.29756-1.4551.49266-2.2221.57886.8077-.4598 1.4121-1.18301 1.7009-2.03502-.7594.42857-1.5903.7306-2.4567.89306-.5833-.58986-1.3548-.98045-2.195-1.11133-.8403-.13088-1.7025.00525-2.4532.38733-.7507.38207-1.3481.98879-1.6997 1.72626-.3516.7375-.4378 1.5646-.2453 2.3533-1.5382-.0733-3.0429-.4534-4.4166-1.1157-1.37368-.6622-2.58555-1.5918-3.55694-2.72835-.49474.80997-.64627 1.76885-.42374 2.68125.22254.9125.80241 1.71 1.62154 2.2302-.61569-.0173-1.21796-.1753-1.75597-.4605v.0466c.00024.8495.30945 1.6727.87518 2.3301s1.35315 1.1084 2.2287 1.2766c-.56958.1477-1.16719.1693-1.74692.0631.24722.7311.72853 1.3704 1.37662 1.8285.64813.4581 1.43053.7122 2.23793.7266-1.37 1.0239-3.06237 1.5798-4.80482 1.5781-.30782-.0006-.61534-.0183-.92098-.0531 1.76928 1.0798 3.82793 1.6525 5.9302 1.6498" fill="#fff"/></svg>