<svg fill="none" height="54" viewBox="0 0 64 54" width="64" xmlns="http://www.w3.org/2000/svg"><path d="m51.5112 27.0443h-37.9049v20.3664h37.9049z" fill="#f3a94d"/><path d="m51.8317 26.9196h-38.9135l11.986-16.875h14.9416z" fill="#002a3e"/><path d="m53.7515 26.9196h-43.503v3.6161h43.503z" fill="#79512c"/><path d="m57.8236 23.4282h-50.89721v3.616h50.89721z" fill="#f1c247"/><path d="m42.4142 13.6607-2.5684-3.6161h-14.9416l-2.5684 3.6161z" fill="#f1c247"/><path d="m17.2175 47.4107v-17.5129h-3.5955v17.5129z" fill="#79512c"/><path d="m51.527 47.4106v-17.5128h-3.5956v17.5128z" fill="#79512c"/><path d="m58 44h-52v4h52z" fill="#002a3e"/><path d="m14 47v7h4v-7z" fill="#002a3e"/><path d="m47 47v7h5v-7z" fill="#002a3e"/><g fill="#e8392b"><path d="m41.2822 30.3749h-17.8142v2.8929h17.8142z"/><path d="m28.7417 43.8749v-10.6071h-2.8765v10.6071z"/><path d="m38.885 43.8749v-10.6071h-2.8764v10.6071z"/><path d="m42.8915 36.241h-21.0329v2.8929h21.0329z"/></g><path d="m19.8944 31.5854-2.6837-2.699-2.6837 2.699 2.6837 2.6989z" fill="#fff"/><path d="m19.8944 36.9834-2.6837-2.699-2.6837 2.699 2.6837 2.699z" fill="#e8392b"/><path d="m19.8944 42.3814-2.6837-2.699-2.6837 2.699 2.6837 2.699z" fill="#fff"/><path d="m50.5068 31.3443-2.6837-2.699-2.6837 2.699 2.6837 2.699z" fill="#fff"/><path d="m50.5068 36.7423-2.6837-2.699-2.6837 2.699 2.6837 2.699z" fill="#e8392b"/><path d="m50.5068 42.1402-2.6837-2.699-2.6837 2.699 2.6837 2.699z" fill="#fff"/><g fill="#f1c247"><path d="m35.9705 0h-7.191v7.22798h7.191z"/><path d="m34.1728 7.22797h-3.5955v2.81663h3.5955z"/><path d="m10.7856 19.5267h-3.83528v7.4732h3.83528z"/><path d="m57.7676 19.5267h-3.8352v7.4732h3.8352z"/></g></svg>