<svg width="54" height="42" viewBox="0 0 54 42" fill="none" xmlns="http://www.w3.org/2000/svg">
<path d="M1.40259 29.6667L12.2523 18.1279V22.7535L3.59635 31.9579L1.40259 29.6667Z" fill="#040000" stroke="white" stroke-width="0.5" stroke-miterlimit="10" stroke-linejoin="round"/>
<path d="M3.59644 31.9579L12.2524 22.7535V41L3.59644 31.9579Z" fill="#CF2C3A" stroke="white" stroke-width="0.5" stroke-miterlimit="10" stroke-linejoin="round"/>
<path d="M12.44 4.44941H3.90674V15.7105H12.44V4.44941Z" fill="#CF2C3A" stroke="white" stroke-width="0.5" stroke-miterlimit="10" stroke-linejoin="round"/>
<path d="M3.90661 4.44942H0.828857V15.7105H3.90661V4.44942Z" fill="#040000" stroke="white" stroke-width="0.5" stroke-miterlimit="10" stroke-linejoin="round"/>
<path d="M49.7843 4.44942H41.251V15.7105H49.7843V4.44942Z" fill="#CF2C3A" stroke="white" stroke-width="0.5" stroke-miterlimit="10" stroke-linejoin="round"/>
<path d="M52.8586 4.44941H49.7844V15.7105H52.8586V4.44941Z" fill="#040000" stroke="white" stroke-width="0.5" stroke-miterlimit="10" stroke-linejoin="round"/>
<path d="M41.2544 4.44942H12.4397V41H41.2544V4.44942Z" fill="#CF2C3A" stroke="white" stroke-width="0.5" stroke-miterlimit="10" stroke-linejoin="round"/>
<path d="M52.1007 29.6667L41.251 18.1279V22.7535L49.9069 31.9579L52.1007 29.6667Z" fill="#040000" stroke="white" stroke-width="0.5" stroke-miterlimit="10" stroke-linejoin="round"/>
<path d="M49.9069 31.9579L41.251 22.7535V41L49.9069 31.9579Z" fill="#CF2C3A" stroke="white" stroke-width="0.5" stroke-miterlimit="10" stroke-linejoin="round"/>
<path d="M33.1652 4.44939H20.5222L23.3546 1H30.3328L33.1652 4.44939Z" fill="#040000" stroke="white" stroke-width="0.5" stroke-miterlimit="10" stroke-linejoin="round"/>
<path d="M34.201 11.9904C33.5119 11.9904 33.6057 14.6605 32.7181 20.2278C31.8413 25.7483 31.5743 28.3354 30.1671 29.2266C30.1527 29.2338 30.1202 29.2482 30.0769 29.2554H23.6111C23.6508 29.2482 23.6832 29.2338 23.6977 29.2266C25.1049 28.339 25.3683 25.7483 26.2486 20.2278C27.1362 14.6605 27.0424 11.9904 27.7316 11.9904H34.201Z" fill="#040000"/>
<path d="M25.6026 11.9904C24.9134 11.9904 25.0072 14.6605 24.1196 20.2278C23.2392 25.7483 22.9758 28.3354 21.5687 29.2266C21.5542 29.2338 21.5217 29.2482 21.4821 29.2554H15.009C15.0487 29.2482 15.0848 29.2338 15.0992 29.2266C16.5064 28.339 16.7698 25.7483 17.6502 20.2278C18.5342 14.6605 18.444 11.9904 19.1332 11.9904H25.6026Z" fill="#040000"/>
<path d="M27.7349 11.9904C28.424 11.9904 28.3266 14.6605 29.2178 20.2278C30.0946 25.7483 30.7188 28.3354 32.126 29.2266C32.1404 29.2338 32.1729 29.2482 32.2126 29.2554H38.682C38.6387 29.2482 38.6062 29.2338 38.5918 29.2266C37.1846 28.339 36.564 25.7483 35.6836 20.2278C34.796 14.6605 34.8934 11.9904 34.2007 11.9904H27.7349Z" fill="white"/>
<path d="M19.1328 11.9904C19.822 11.9904 19.7282 14.6605 20.6158 20.2278C21.4962 25.7483 22.1204 28.3354 23.5239 29.2266C23.5384 29.2338 23.5708 29.2482 23.6141 29.2554H30.0799C30.0403 29.2482 30.0078 29.2338 29.9934 29.2266C28.5862 28.339 27.962 25.7483 27.0852 20.2278C26.1976 14.6605 26.2914 11.9904 25.6058 11.9904H19.1328Z" fill="white"/>
</svg>
