<svg width="600" height="210" viewBox="0 0 600 210" fill="none" xmlns="http://www.w3.org/2000/svg">
<path d="M40 0H559.324V210H40V0Z" fill="white"/>
<path d="M295.998 145.032H309.971L303.953 167.98H289.981L295.998 145.032ZM136.994 65.5804H151.374L185.644 144.522H166.061L159.33 127.591H128.732L122.205 144.522H103.031L136.994 65.5804ZM143.725 88.4264L134.138 112.904H153.414L143.725 88.4264ZM196.149 65.6824L212.773 55.3813V144.42L196.149 154.517V65.6824ZM230.52 88.6304H245.818V97.0957H246.022C246.736 96.1778 247.552 95.1578 248.674 94.1379C249.796 93.118 251.02 92.2001 252.448 91.3842C253.876 90.5682 255.508 89.8543 257.139 89.3443C258.873 88.8344 260.607 88.5284 262.545 88.5284C266.523 88.5284 270.194 89.2424 273.458 90.5682C276.722 91.8941 279.475 93.832 281.821 96.3817C284.167 98.8295 285.901 101.787 287.227 105.255C288.451 108.621 289.165 112.394 289.165 116.474C289.165 120.248 288.553 123.817 287.431 127.285C286.309 130.753 284.677 133.813 282.535 136.464C280.393 139.116 277.946 140.748 274.988 142.38C271.928 144.012 268.46 144.726 264.687 144.726C261.219 144.726 257.955 144.216 254.998 143.094C252.04 141.972 249.388 140.646 247.45 138.096H247.246V167.878H230.622V88.6304H230.52ZM245.818 116.984C245.818 121.064 246.94 124.327 249.286 126.877C251.632 129.427 254.896 130.651 259.077 130.651C263.259 130.651 266.625 129.427 268.868 126.877C271.214 124.327 272.336 121.064 272.336 116.984C272.336 112.904 271.214 109.641 268.868 107.091C266.523 104.541 263.259 103.317 259.077 103.317C254.896 103.317 251.53 104.541 249.286 107.091C246.94 109.641 245.818 112.904 245.818 116.984ZM327.717 65.5804H345.056V144.522H327.717V65.5804ZM362.598 88.7324H378.611V97.4017H378.815C379.325 96.3817 380.039 95.3618 381.059 94.2399C381.977 93.22 383.201 92.3021 384.526 91.4862C385.852 90.6702 387.382 89.9563 389.116 89.4463C390.85 88.9364 392.686 88.6304 394.624 88.6304C398.805 88.6304 402.273 89.2424 404.823 90.5682C407.373 91.8941 409.412 93.628 410.84 95.9738C412.268 98.3196 413.288 100.971 413.798 104.133C414.308 107.295 414.614 110.661 414.614 114.23V144.318H397.989V117.494C397.989 115.964 397.887 114.332 397.785 112.7C397.683 111.068 397.377 109.539 396.765 108.111C396.255 106.683 395.338 105.561 394.216 104.643C393.094 103.725 391.462 103.317 389.32 103.317C387.178 103.317 385.444 103.725 384.118 104.439C382.793 105.255 381.773 106.275 381.059 107.601C380.345 108.927 379.937 110.355 379.631 111.986C379.427 113.618 379.325 115.046 379.325 116.882V144.42H362.7V88.7324H362.598ZM465.1 107.193C464.284 106.071 463.162 105.051 461.734 104.337C460.306 103.623 458.674 103.215 457.042 103.215C452.861 103.215 449.699 104.439 447.353 106.887C445.109 109.335 443.885 112.598 443.885 116.576C443.885 120.554 445.007 123.817 447.353 126.265C449.597 128.713 452.861 129.937 457.042 129.937C458.878 129.937 460.408 129.529 461.734 128.713C463.06 127.897 464.182 126.979 465.1 125.857L475.911 137.178C473.361 139.83 470.403 141.666 466.935 142.686C463.468 143.706 460.204 144.318 457.042 144.318C452.963 144.318 449.087 143.706 445.517 142.38C441.948 141.054 438.786 139.218 436.134 136.77C433.482 134.322 431.341 131.365 429.811 127.999C428.281 124.531 427.567 120.758 427.567 116.576C427.567 112.394 428.281 108.519 429.811 105.153C431.341 101.685 433.38 98.8295 436.134 96.3817C438.786 93.9339 441.948 92.0981 445.517 90.7722C449.087 89.4463 452.963 88.8344 457.042 88.8344C460.204 88.8344 463.468 89.3443 466.935 90.4662C470.403 91.4862 473.361 93.322 475.911 95.9738L465.1 107.193ZM487.946 135.954C487.946 134.73 488.15 133.507 488.66 132.385C489.068 131.263 489.781 130.345 490.597 129.529C491.413 128.713 492.331 128.101 493.453 127.591C494.575 127.183 495.697 126.877 497.023 126.877C498.247 126.877 499.471 127.081 500.593 127.591C501.714 127.999 502.632 128.713 503.448 129.529C504.264 130.345 504.876 131.263 505.386 132.385C505.794 133.507 506.1 134.628 506.1 135.954C506.1 137.178 505.896 138.402 505.386 139.524C504.978 140.646 504.264 141.564 503.448 142.38C502.632 143.196 501.714 143.808 500.593 144.318C499.471 144.726 498.349 145.032 497.023 145.032C495.799 145.032 494.575 144.828 493.453 144.318C492.331 143.91 491.413 143.196 490.597 142.38C489.781 141.564 489.169 140.646 488.66 139.524C488.15 138.3 487.946 137.178 487.946 135.954Z" fill="black"/>
</svg>
