<?xml version="1.0" encoding="utf-8"?>
<!-- Generator: Adobe Illustrator 25.4.1, SVG Export Plug-In . SVG Version: 6.00 Build 0)  -->
<svg version="1.1" id="レイヤー_1" xmlns="http://www.w3.org/2000/svg" xmlns:xlink="http://www.w3.org/1999/xlink" x="0px"
	 y="0px" viewBox="0 0 800 280" style="enable-background:new 0 0 800 280;" xml:space="preserve">
<style type="text/css">
	.st0{fill:#3397D3;}
	.st1{fill:#F39D1E;}
</style>
<g id="レイヤー_1-2">
	<path class="st0" d="M242.4,199.2h17.9v55.3h-17.9v-6.7c-4.8,7.4-11.8,8.5-16.4,8.5c-7.9,0-14.6-2-20.7-8.4c-5.3-5.6-8.2-13-8-20.7
		c0-9.3,3.5-17.2,8.5-22.3c5.1-5,12-7.7,19.2-7.6c4.7,0,12.3,1.1,17.3,8.1L242.4,199.2L242.4,199.2z M219.7,216.6
		c-2.7,2.6-4.1,6.3-4.1,10c-0.1,3.7,1.3,7.2,3.7,9.9c2.8,2.8,6.6,4.4,10.5,4.3c3.5,0,6.8-1.4,9.3-3.8c5.7-5.6,5.8-14.8,0.2-20.6
		c-2.7-2.5-6.3-3.8-9.9-3.8C225.9,212.7,222.4,214.1,219.7,216.6z"/>
	<path class="st0" d="M292.5,213.5v40.9h-17.8v-40.9h-6.2v-14.4h6.2v-17.8h17.8v17.8h11v14.4L292.5,213.5z"/>
	<path class="st0" d="M323.6,165.6l18.9,58.9l18.9-58.9h14.1l18.9,58.9l18.9-58.9h21.3l-30.2,88.8h-17.3l-18.6-53.9l-18.7,53.9
		h-17.3l-30.2-88.8L323.6,165.6z"/>
	<path class="st0" d="M473.9,199.2h17.8v55.3h-17.8v-6.7c-4.8,7.4-11.8,8.5-16.4,8.5c-7.9,0-14.6-2-20.7-8.4c-5.3-5.6-8.2-13-8-20.7
		c0-9.3,3.5-17.2,8.5-22.3c5.1-5,12-7.7,19.2-7.6c4.7,0,12.3,1.1,17.3,8.1L473.9,199.2L473.9,199.2z M451.2,216.6
		c-2.7,2.6-4.1,6.3-4.1,10c-0.1,3.7,1.2,7.2,3.7,9.9c2.8,2.8,6.6,4.4,10.5,4.3c3.5,0,6.8-1.4,9.3-3.8c5.7-5.6,5.8-14.8,0.3-20.6
		c-2.7-2.5-6.3-3.8-9.9-3.8C457.3,212.7,453.8,214.1,451.2,216.6z"/>
	<path class="st0" d="M503.1,199.2H521v8.7c1.6-3.1,4-5.8,6.9-7.7c2.9-1.7,6.2-2.5,9.5-2.4c2,0,3.9,0.3,5.8,0.9l-1,16.7
		c-2.5-1.3-5.2-2-8.1-2c-3.4-0.1-6.6,1.2-8.9,3.7c-4,4.2-4.3,10.2-4.3,14.9v22.4h-17.8V199.2z"/>
	<path class="st0" d="M604.8,229.9h-41.3c0,3.4,1.2,6.8,3.3,9.4c2.7,3,6.4,3.5,9.2,3.5c2.5,0.1,5-0.5,7.2-1.6c1.7-1.1,3-2.7,3.8-4.6
		l16.9,1.7c-1.7,5.8-5.5,10.7-10.7,13.9c-5.3,3.2-11.3,4.1-17.5,4.1c-8.3,0-15.6-1.5-22.1-7.9c-4.8-4.8-8.3-12.1-8.3-21.3
		c0-7.9,2.8-16.1,8.4-21.8c6.7-6.7,15-7.9,21.2-7.9c6.2,0,15.1,1.1,21.9,8.3c6.6,6.9,7.8,15.6,7.8,22.4L604.8,229.9L604.8,229.9z
		 M588.4,219.2c-0.6-2.4-1.8-4.6-3.6-6.4c-5.1-4.3-12.6-4.1-17.5,0.5c-1.6,1.7-2.6,3.7-3.1,5.9L588.4,219.2L588.4,219.2z"/>
	<path class="st1" d="M366.6,102.1l-14-14l-14-14l-18.6-18.6l-14-14l-14-14c-5.1-5.1-13.5-5.1-18.6,0l-14,14l-14,14l-18.6,18.6
		l-14,14l-14,14c-5.1,5.1-5.1,13.5,0,18.6l27.9,27.9c5.1,5.1,13.5,5.1,18.6,0l14-14l14-14l9.3-9.3l9.3,9.3l14,14l14,14
		c5.1,5.1,13.5,5.1,18.6,0l27.9-27.9C371.8,115.6,371.8,107.2,366.6,102.1z"/>
	<path class="st0" d="M599.4,55.5l-27.9-27.9c-5.1-5.1-13.5-5.1-18.6,0l-14,14l-14,14l-9.3,9.3l-9.3-9.3l-14-14l-14-14
		c-5.1-5.1-13.5-5.1-18.6,0c0,0,0,0,0,0l-9,9l-19,19l-9.3,9.3l-9.3-9.3l0,0l-27.9-27.9c-5.1-5.1-13.5-5.1-18.6,0c0,0,0,0,0,0
		l-27.9,27.9c-5.1,5.1-5.1,13.5,0,18.6l14,14l14,14l18.6,18.6l14,14l14,14c5.1,5.1,13.5,5.1,18.6,0c0,0,0,0,0,0l14-14l14-14l9.3-9.3
		l9.3,9.3l14,14l14,14c5.1,5.1,13.5,5.1,18.6,0l14-14l14-14l18.6-18.6l14-14l14-14C604.6,69,604.6,60.7,599.4,55.5
		C599.4,55.5,599.4,55.5,599.4,55.5z"/>
</g>
</svg>
