<svg id="レイヤー_1" data-name="レイヤー 1" xmlns="http://www.w3.org/2000/svg" viewBox="0 0 200 70"><defs><style>.cls-1{fill:#040000;}</style></defs><path class="cls-1" d="M14.92,23.47H31.18v4.26H20v5.32h9.68V37H20v9.53H14.92Z"/><path class="cls-1" d="M36.73,23.47h5.08v18.8H53.07v4.26H36.73Z"/><path class="cls-1" d="M58,23.47h5.09V46.53H58Z"/><path class="cls-1" d="M70.69,23.47h5l9.65,15.47h.06V23.47h4.77V46.53H85.13L75.51,31.1h-.06V46.55H70.69Z"/><path class="cls-1" d="M102.39,27.73H95.46V23.47h19v4.26h-6.93v18.8h-5.09Z"/><path class="cls-1" d="M119.22,23.47h17.29v4.26h-12.2v4.94h11.2v3.94h-11.2v5.66h12.46v4.26H119.22Z"/><path class="cls-1" d="M156.2,46.54l-4.59-8.37h-4.2v8.36h-5.09V23.46h11c5.47,0,8.36,2.61,8.36,7.55a6.37,6.37,0,0,1-4.75,6.18l-.11,0,5.31,9.31Zm-8.79-12.49h5.43c2.07,0,3.21-1.16,3.21-3.15s-1.14-3.12-3.21-3.15h-5.43Z"/><path class="cls-1" d="M170.54,38.88c0,3.07,2.4,4.26,5.12,4.26,1.78,0,4.5-.52,4.5-2.87s-3.47-2.91-6.87-3.82-6.9-2.22-6.9-6.55c0-4.72,4.47-7,8.65-7,4.83,0,9.25,2.1,9.25,7.43h-4.91c-.16-2.78-2.14-3.49-4.57-3.49-1.62,0-3.49.68-3.49,2.62,0,1.77,1.1,2,6.89,3.48,1.69.43,6.87,1.49,6.87,6.72,0,4.24-3.33,7.4-9.62,7.4-5.11,0-9.91-2.52-9.84-8.2Z"/></svg>