<svg viewBox="0 0 200 70" xmlns="http://www.w3.org/2000/svg"><path d="m0 0h200v70h-200z" fill="#fff"/><g fill="#f26161"><path d="m116.91 22.9a3.84 3.84 0 0 0 4.09-3.2c.45-2-.64-3.78-3.31-3.81-2.9 0-3.57 2.72-3.7 3.27-.78 3.49 2.01 3.75 2.92 3.74z"/><path d="m150 21.68a.69.69 0 0 0 -1.35-.15c-1.84 5-6 6.3-8.77 3.73a8.57 8.57 0 0 0 -5.71-2.48c-7.1 0-11.7 5.53-13.47 12.14a16.67 16.67 0 0 0 -.53 3.06 17.22 17.22 0 0 1 -4 3.36c-2 1-3.74 1.12-2.86-2 .72-2.49 2.31-7.05 3.81-10.66a2.53 2.53 0 0 0 -1.83-3.63 3 3 0 0 0 -3.65 1.71c-1 2.39-2.37 6.12-3.61 9.8-.57 1.38-2.57 4.78-5.19 6.14-2 1-3.62 1.15-2.85-2 .7-2.82 6.26-18.42 10.62-29.68a2.65 2.65 0 0 0 -1.81-3.75 3.06 3.06 0 0 0 -3.67 1.84c-1.13 2.73-4.13 10.89-6.89 18.46-2 4.24-6.17 5.1-8.76 2.69a7.56 7.56 0 0 0 -5.34-2.34 12.2 12.2 0 0 0 -6 1.55 2.78 2.78 0 0 0 -2.57-1.36c-.3 0-4 .29-8.68.77 2.44-5.15 4.66-8.56 6.42-9.63.79-.49 2.74-1.53 3.55 2 .39 1.69.91 3 2.44 2.88 2.33-.12 2.72-1.47 2.81-2.9 0-.56-.06-7.4-5.46-8.22-4.06-.62-7.67 1.42-11 6.25a58.56 58.56 0 0 0 -5.38 10.34c-1.85.23-3.71.48-5.48.75a2.72 2.72 0 0 0 -2.3 3.18 2.65 2.65 0 0 0 3.18 2.3l2.24-.35c-3.66 9.5-6.65 19.67-7.76 23.6a2.86 2.86 0 0 0 2 3.53 2.69 2.69 0 0 0 .79.11 2.88 2.88 0 0 0 2.75-2.08 255.09 255.09 0 0 1 8.72-26c3.63-.4 7-.68 9.13-.85a20.3 20.3 0 0 0 -2.8 6.22c-1.77 6.61.61 10.81 4.88 11.66 8.89 1.77 15.31-7.11 15.88-14.18a4.9 4.9 0 0 0 3.42-.27c-.8 2.37-1.39 4.22-1.64 5.16-1.28 4.62 1.72 9.13 8.19 6.85a13.83 13.83 0 0 0 5.26-3.68c1.11 2.37 3.93 3.75 8.07 2.28a18.8 18.8 0 0 0 6.25-4.58 6.35 6.35 0 0 0 4.52 3.32c8.89 1.77 15.31-7.11 15.88-14.18 6.4 1.67 8.75-8.15 8.55-10.71zm-64.88 16.89c-.62 3.76-3.48 7.94-7.39 7.5-3.1-.44-1.29-6.14-1.11-6.63.93-2.57 3-4.92 5.23-5.34 2.01-.34 3.73 1.59 3.27 4.47zm50-5.13c-.62 3.76-3.48 7.94-7.39 7.49-3.1-.44-1.29-6.14-1.11-6.63.93-2.56 3-4.91 5.23-5.33 2.03-.34 3.75 1.58 3.29 4.47z"/></g></svg>