<svg xmlns="http://www.w3.org/2000/svg" xmlns:xlink="http://www.w3.org/1999/xlink"
	 width="400px" height="140px" viewBox="0 0 400 140" style="enable-background:new 0 0 400 140;">
<style type="text/css">
	.st0{fill:#3D3B39;}
	.st1{fill:url(#SVGID_1_);}
	.st2{fill:url(#SVGID_2_);}
	.st3{fill:url(#SVGID_3_);}
	.st4{fill:url(#SVGID_4_);}
	.st5{fill:url(#SVGID_5_);}
	.st6{opacity:0.8;}
	.st7{fill:url(#SVGID_6_);}
	.st8{fill:url(#SVGID_7_);}
	.st9{opacity:0.5;fill:url(#SVGID_8_);enable-background:new    ;}
	.st10{fill:url(#SVGID_9_);}
	.st11{fill:url(#SVGID_10_);}
	.st12{fill:url(#SVGID_11_);}
	.st13{opacity:0.5;fill:url(#SVGID_12_);enable-background:new    ;}
	.st14{opacity:0.5;fill:url(#SVGID_13_);enable-background:new    ;}
	.st15{opacity:0.5;}
	.st16{fill:url(#SVGID_14_);}
</style>
<title>アセット 9</title>
<g>
	<g id="レイヤー_2_1_">
		<g id="ロゴ">
			<path class="st0" d="M209.6,49.4h-1.3c-0.5,0-1,0.2-1.3,0.6l-15,18.6l-15-18.6c-0.3-0.4-0.8-0.6-1.3-0.6h-1.3
				c-0.9,0-1.6,0.7-1.6,1.6c0,0,0,0,0,0v21.2c0,0.6,0.5,1.1,1.1,1.1h1.7c0.6,0,1.1-0.5,1.1-1.1V55.2l14,17.5
				c0.6,0.8,1.7,0.9,2.5,0.3c0.1-0.1,0.2-0.2,0.3-0.3l14-17.5v17.1c0,0.6,0.5,1.1,1.1,1.1h1.7c0.6,0,1.1-0.5,1.1-1.1V51
				c0-0.9-0.7-1.6-1.6-1.6C209.7,49.4,209.6,49.4,209.6,49.4z"/>
			<path class="st0" d="M242.6,58.4H257c0.6,0,1.1-0.5,1.1-1.1v-1.1c0-0.6-0.5-1.1-1.1-1.1h-15.4c-4.4,0-8,3.6-8,8v2.1
				c0,4.4,3.5,8.1,7.9,8.1c0,0,0,0,0.1,0H257c0.6,0,1.1-0.5,1.1-1.1v-1.1c0-0.6-0.5-1.1-1.1-1.1h-14.4c-2.9,0-5.3-2.4-5.3-5.3l0,0
				v-1.1C237.3,60.8,239.7,58.4,242.6,58.4L242.6,58.4z"/>
			<path class="st0" d="M221.5,55.2h1.7c0.6,0,1.1,0.5,1.1,1.1v16c0,0.6-0.5,1.1-1.1,1.1h-1.7c-0.6,0-1.1-0.5-1.1-1.1v-16
				C220.5,55.7,221,55.2,221.5,55.2z"/>
			<path class="st0" d="M221.8,49h1.1c1,0,1.9,0.8,1.9,1.9v0.2c0,1-0.8,1.9-1.9,1.9h-1.1c-1,0-1.9-0.8-1.9-1.9v-0.2
				C219.9,49.9,220.7,49,221.8,49z"/>
			<path class="st0" d="M383.9,49.3h-1.7c-0.6,0-1.1,0.5-1.1,1.1v6.1c-1.3-0.8-2.7-1.2-4.2-1.2h-10.1c-4.4,0-8,3.6-8,8v2.1
				c0,4.4,3.6,8,8,8c0,0,0,0,0,0H377c4.4,0,8-3.6,8-8c0,0,0,0,0,0v-15C385,49.8,384.5,49.3,383.9,49.3z M381.2,63.7v1.1
				c0,2.9-2.4,5.3-5.3,5.3h-8.1c-2.9,0-5.3-2.4-5.3-5.3v-1.1c0-2.9,2.4-5.3,5.3-5.3h8.1C378.9,58.4,381.2,60.8,381.2,63.7z"/>
			<path class="st0" d="M278.6,55.2h-3.9c-4.1,0-7.4,3.3-7.4,7.4v9.6c0,0.6,0.5,1.1,1.1,1.1h1.7c0.6,0,1.1-0.5,1.1-1.1v-9.1
				c0-2.5,2-4.6,4.6-4.7h2.8c0.6,0,1.1-0.5,1.1-1.1v-1.1C279.6,55.7,279.2,55.2,278.6,55.2z"/>
			<path class="st0" d="M304.3,55.2h-10.1c-4.4,0-8,3.6-8,8v2.1c0,4.4,3.6,8,8,8c0,0,0,0,0,0h10.1c4.4,0,8-3.6,8-8c0,0,0,0,0,0v-2.1
				C312.4,58.8,308.8,55.2,304.3,55.2L304.3,55.2z M308.6,63.7v1.1c0,2.9-2.4,5.3-5.3,5.3h-8.1c-2.9,0-5.3-2.4-5.3-5.3v-1.1
				c0-2.9,2.4-5.3,5.3-5.3h8.1C306.3,58.4,308.6,60.8,308.6,63.7z"/>
			<path class="st0" d="M354.7,72.1l-17.7-22l0,0c-0.6-0.8-1.8-0.9-2.5-0.3c-0.1,0.1-0.2,0.2-0.3,0.3l-17.7,22
				c-0.2,0.2-0.2,0.5-0.1,0.8c0.1,0.3,0.4,0.5,0.7,0.4h2.2c0.5,0,1-0.2,1.3-0.6l4.4-5.5h21.3l4.4,5.5c0.3,0.4,0.8,0.6,1.3,0.6h2.2
				c0.3,0,0.6-0.2,0.7-0.4C354.9,72.6,354.9,72.3,354.7,72.1z M343.7,64.1h-16.1l8.1-10L343.7,64.1z"/>
			
				<linearGradient id="SVGID_1_" gradientUnits="userSpaceOnUse" x1="15.2629" y1="78.2765" x2="151.3959" y2="78.2765" gradientTransform="matrix(1 0 0 -1 0 140.24)">
				<stop  offset="0" style="stop-color:#61B4A9"/>
				<stop  offset="0.18" style="stop-color:#8EC6AD"/>
				<stop  offset="0.42" style="stop-color:#AB96B6"/>
				<stop  offset="1" style="stop-color:#C66584"/>
			</linearGradient>
			<path class="st1" d="M133.6,74.6c6.2,0,17.4-3.6,17.4-11c0-6.6-9.3-14.2-20.9-14.2c-2.8,0-5.6,0.5-8.2,1.5l0,0
				c12-3.4,20.6,6.8,20.1,12.5c-0.3,3.9-4.6,10-14.6,10c-2,0-3.9-0.4-5.8-1.1l0.3,0.1l0,0C125.6,73.9,129.6,74.7,133.6,74.6z"/>
			
				<linearGradient id="SVGID_2_" gradientUnits="userSpaceOnUse" x1="17.4102" y1="69.3447" x2="150.4209" y2="69.3447" gradientTransform="matrix(1 0 0 -1 0 140.24)">
				<stop  offset="0" style="stop-color:#61B4A9"/>
				<stop  offset="0.18" style="stop-color:#8EC6AD"/>
				<stop  offset="0.42" style="stop-color:#AB96B6"/>
				<stop  offset="1" style="stop-color:#C66584"/>
			</linearGradient>
			<path class="st2" d="M16.4,69.5c0,3.8,4.8,11.1,17.5,11.1c-6.6,0-10.5-5.5-11.3-11c-0.9-6.4,2.6-8.3,5.2-7.9
				c-0.6-0.2-1.1-0.3-1.7-0.4C20.5,60.8,16.4,65.7,16.4,69.5z"/>
			
				<linearGradient id="SVGID_3_" gradientUnits="userSpaceOnUse" x1="16.0956" y1="79.5083" x2="137.7344" y2="79.5083" gradientTransform="matrix(1 0 0 -1 0 140.24)">
				<stop  offset="0" style="stop-color:#61B4A9"/>
				<stop  offset="0.23" style="stop-color:#8EC6AD"/>
				<stop  offset="0.44" style="stop-color:#E8B78C"/>
				<stop  offset="0.68" style="stop-color:#AB96B6"/>
				<stop  offset="1" style="stop-color:#C66584"/>
			</linearGradient>
			<path class="st3" d="M121.8,72.3c-4.3-1.9-7.6-5.3-9.5-9.6c-4.1-9.1-4.3-23.4-15.9-23.4c-9.8,0-21.6,13.5-34.8,25.6
				C51.4,74.5,42.1,80.6,34,80.6v1.5c17.3,0,28.9-11,36.2-17.1s15.6-14.4,23.6-14c6.4,0.3,9.9,9.5,13.5,14.2
				c3.6,4.8,8.7,8.3,14.6,9.6L121.8,72.3z"/>
			
				<linearGradient id="SVGID_4_" gradientUnits="userSpaceOnUse" x1="69.5434" y1="78.4236" x2="93.3387" y2="70.8204" gradientTransform="matrix(1 0 0 -1 0 140.24)">
				<stop  offset="0" style="stop-color:#FFFFFF;stop-opacity:4.000000e-02"/>
				<stop  offset="6.000000e-02" style="stop-color:#FFFFFF;stop-opacity:0.17"/>
				<stop  offset="0.14" style="stop-color:#FFFFFF;stop-opacity:0.29"/>
				<stop  offset="0.22" style="stop-color:#FFFFFF;stop-opacity:0.38"/>
				<stop  offset="0.3" style="stop-color:#FFFFFF;stop-opacity:0.45"/>
				<stop  offset="0.39" style="stop-color:#FFFFFF;stop-opacity:0.49"/>
				<stop  offset="0.5" style="stop-color:#FFFFFF;stop-opacity:0.5"/>
				<stop  offset="0.61" style="stop-color:#FFFFFF;stop-opacity:0.49"/>
				<stop  offset="0.7" style="stop-color:#FFFFFF;stop-opacity:0.45"/>
				<stop  offset="0.77" style="stop-color:#FFFFFF;stop-opacity:0.38"/>
				<stop  offset="0.85" style="stop-color:#FFFFFF;stop-opacity:0.29"/>
				<stop  offset="0.92" style="stop-color:#FFFFFF;stop-opacity:0.17"/>
				<stop  offset="0.99" style="stop-color:#FFFFFF;stop-opacity:2.000000e-02"/>
				<stop  offset="1" style="stop-color:#FFFFFF;stop-opacity:0"/>
			</linearGradient>
			<path class="st4" d="M112.3,62.7c-4.1-9.1-4.3-23.4-15.9-23.4c-9.8,0-21.6,13.5-34.8,25.6C51.4,74.5,42.1,80.6,34,80.6v1.5
				c5.3,0,10.5-1,15.3-3c9.2-4.2,16-11.3,20.8-15.5c7.3-6.1,15.6-14.4,23.6-14s8.8,9.8,14.9,17.3l0,0l5.8-0.6
				C113.6,65.2,112.9,64,112.3,62.7z"/>
			
				<linearGradient id="SVGID_5_" gradientUnits="userSpaceOnUse" x1="17.4102" y1="66.2998" x2="150.4209" y2="66.2998" gradientTransform="matrix(1 0 0 -1 0 140.24)">
				<stop  offset="0" style="stop-color:#61B4A9"/>
				<stop  offset="0.18" style="stop-color:#8EC6AD"/>
				<stop  offset="0.42" style="stop-color:#AB96B6"/>
				<stop  offset="1" style="stop-color:#C66584"/>
			</linearGradient>
			<path class="st5" d="M121.8,72.3c3.7,1.6,7.8,2.3,11.8,2.3c6.2,0,17.4-3.6,17.4-11c0-6.6-9.3-14.2-20.9-14.2
				c-16.6-0.1-21.6,14.8-33.6,30.5c-8.4,10.9-18.5,20.8-32.5,20.8c-13.1,0-19-10.2-23.8-20.2c-4.6-9.7-7.5-18.5-14-19.2
				c-5.6-0.5-9.7,4.4-9.7,8.2s4.8,11.1,17.5,11.1v1.5C20.8,82.1,15,74.6,15,69.4c0-5.2,4.8-9.5,12.8-9.5S41,66.5,45.6,74.6
				s9.2,13,15.5,13c11.8,0,21-8.4,29.7-17.5c10.8-11.3,20.9-23.8,36.9-22.9c17.7,1.1,24.6,10.4,24.6,16c0,6.4-6.9,12.7-20.8,12.7
				c-3.3,0-6.5-0.3-9.7-1.1L121.8,72.3z"/>
			<g class="st6">
				
					<linearGradient id="SVGID_6_" gradientUnits="userSpaceOnUse" x1="114.0978" y1="77.382" x2="117.1873" y2="94.122" gradientTransform="matrix(1 0 0 -1 0 140.24)">
					<stop  offset="0" style="stop-color:#FFFFFF;stop-opacity:0"/>
					<stop  offset="0.5" style="stop-color:#FFFFFF;stop-opacity:0.5"/>
					<stop  offset="1" style="stop-color:#FFFFFF;stop-opacity:0"/>
				</linearGradient>
				<path class="st7" d="M121.1,49.9c6.4-2.9,13.7-1.6,14.8-1.3c-2.7-0.7-5.4-1.1-8.2-1.2c-14.4-0.9-23.9,9.1-33.6,19.3l9.1,2.4
					C109.4,58,114.9,52.7,121.1,49.9z"/>
			</g>
			<g>
				
					<linearGradient id="SVGID_7_" gradientUnits="userSpaceOnUse" x1="56.3894" y1="51.7049" x2="88.3357" y2="59.8558" gradientTransform="matrix(1 0 0 -1 0 140.24)">
					<stop  offset="0" style="stop-color:#FFFFFF;stop-opacity:4.000000e-02"/>
					<stop  offset="5.000000e-02" style="stop-color:#E3DFE4;stop-opacity:0.16"/>
					<stop  offset="0.14" style="stop-color:#B6AAB9;stop-opacity:0.35"/>
					<stop  offset="0.25" style="stop-color:#96849A;stop-opacity:0.49"/>
					<stop  offset="0.36" style="stop-color:#836E88;stop-opacity:0.57"/>
					<stop  offset="0.5" style="stop-color:#7D6782;stop-opacity:0.6"/>
					<stop  offset="0.64" style="stop-color:#836E88;stop-opacity:0.57"/>
					<stop  offset="0.75" style="stop-color:#96849A;stop-opacity:0.49"/>
					<stop  offset="0.86" style="stop-color:#B6AAB9;stop-opacity:0.35"/>
					<stop  offset="0.95" style="stop-color:#E3DFE4;stop-opacity:0.16"/>
					<stop  offset="1" style="stop-color:#FFFFFF;stop-opacity:4.000000e-02"/>
				</linearGradient>
				<path class="st8" d="M61.2,89.3c-6.3,0-10.5-4.9-15.1-13l-4.3,7.5c4.6,8.8,10.5,16.8,22.1,16.8c13.5,0,23.4-9.1,31.6-19.6
					l-5.4-9.2C81.4,80.9,72.9,89.3,61.2,89.3z"/>
			</g>
			<g>
				
					<linearGradient id="SVGID_8_" gradientUnits="userSpaceOnUse" x1="24.5665" y1="78.6196" x2="25.2348" y2="63.6434" gradientTransform="matrix(1 0 0 -1 0 140.24)">
					<stop  offset="0" style="stop-color:#629289"/>
					<stop  offset="5.000000e-02" style="stop-color:#76A098;stop-opacity:0.87"/>
					<stop  offset="0.2" style="stop-color:#B1C9C4;stop-opacity:0.5"/>
					<stop  offset="0.33" style="stop-color:#DBE6E4;stop-opacity:0.23"/>
					<stop  offset="0.44" style="stop-color:#F5F8F8;stop-opacity:6.000000e-02"/>
					<stop  offset="0.5" style="stop-color:#FFFFFF;stop-opacity:0"/>
					<stop  offset="0.56" style="stop-color:#F5F8F8;stop-opacity:6.000000e-02"/>
					<stop  offset="0.67" style="stop-color:#DBE6E4;stop-opacity:0.23"/>
					<stop  offset="0.8" style="stop-color:#B1C9C4;stop-opacity:0.5"/>
					<stop  offset="0.95" style="stop-color:#76A098;stop-opacity:0.87"/>
					<stop  offset="1" style="stop-color:#629289"/>
				</linearGradient>
				<path class="st9" d="M16.4,69.5c0,3.8,4.8,11.1,17.5,11.1c-6.6,0-10.5-5.5-11.3-11c-0.9-6.4,2.6-8.3,5.2-7.9
					c-0.6-0.2-1.1-0.3-1.7-0.4C20.5,60.8,16.4,65.7,16.4,69.5z"/>
			</g>
			
				<linearGradient id="SVGID_9_" gradientUnits="userSpaceOnUse" x1="29.5944" y1="79.3058" x2="35.105" y2="66.8603" gradientTransform="matrix(1 0 0 -1 0 140.24)">
				<stop  offset="0" style="stop-color:#FFFFFF;stop-opacity:0.5"/>
				<stop  offset="0.22" style="stop-color:#FFFFFF;stop-opacity:0.49"/>
				<stop  offset="0.39" style="stop-color:#FFFFFF;stop-opacity:0.45"/>
				<stop  offset="0.55" style="stop-color:#FFFFFF;stop-opacity:0.38"/>
				<stop  offset="0.7" style="stop-color:#FFFFFF;stop-opacity:0.29"/>
				<stop  offset="0.84" style="stop-color:#FFFFFF;stop-opacity:0.17"/>
				<stop  offset="0.98" style="stop-color:#FFFFFF;stop-opacity:2.000000e-02"/>
				<stop  offset="1" style="stop-color:#FFFFFF;stop-opacity:0"/>
			</linearGradient>
			<path class="st10" d="M26.1,60.6c6.2,0.6,9.2,8.5,12.8,16.8l6.7-2.7l0,0c-4.6-8.2-9.9-14.8-17.8-14.8c-2.7-0.1-5.4,0.5-7.9,1.8
				C21.9,60.8,24,60.4,26.1,60.6z"/>
			
				<linearGradient id="SVGID_10_" gradientUnits="userSpaceOnUse" x1="113.1266" y1="74.2172" x2="108.832" y2="77.6901" gradientTransform="matrix(1 0 0 -1 0 140.24)">
				<stop  offset="0" style="stop-color:#FFFFFF;stop-opacity:0"/>
				<stop  offset="1.000000e-02" style="stop-color:#FDFBFC;stop-opacity:1.000000e-02"/>
				<stop  offset="0.18" style="stop-color:#E0BFC7;stop-opacity:0.19"/>
				<stop  offset="0.35" style="stop-color:#C98F9E;stop-opacity:0.33"/>
				<stop  offset="0.54" style="stop-color:#B96D81;stop-opacity:0.42"/>
				<stop  offset="0.75" style="stop-color:#AF5970;stop-opacity:0.48"/>
				<stop  offset="1" style="stop-color:#AC536A;stop-opacity:0.5"/>
			</linearGradient>
			<path class="st11" d="M107.3,65.2c1.7,2.2,3.7,4.2,5.9,5.8l2.2-3.5c-1.2-1.4-2.2-3-3-4.8c-0.5-1.1-0.9-2.2-1.3-3.4
				c-1.4,1.7-2.7,3.5-4.1,5.5L107.3,65.2z"/>
			
				<linearGradient id="SVGID_11_" gradientUnits="userSpaceOnUse" x1="102.7208" y1="90.5846" x2="109.1736" y2="88.1087" gradientTransform="matrix(1 0 0 -1 0 140.24)">
				<stop  offset="0" style="stop-color:#FFFFFF;stop-opacity:0"/>
				<stop  offset="1.000000e-02" style="stop-color:#FDFBFC;stop-opacity:1.000000e-02"/>
				<stop  offset="0.18" style="stop-color:#E0BFC7;stop-opacity:0.19"/>
				<stop  offset="0.35" style="stop-color:#C98F9E;stop-opacity:0.33"/>
				<stop  offset="0.54" style="stop-color:#B96D81;stop-opacity:0.42"/>
				<stop  offset="0.75" style="stop-color:#AF5970;stop-opacity:0.48"/>
				<stop  offset="1" style="stop-color:#AC536A;stop-opacity:0.5"/>
			</linearGradient>
			<path class="st12" d="M103.5,42L103.5,42L100.8,54c0.8,1.2,1.6,2.5,2.2,3.8c1.9-1.7,3.9-3.3,6-4.8
				C107.7,48.7,106.3,44.6,103.5,42z"/>
			
				<linearGradient id="SVGID_12_" gradientUnits="userSpaceOnUse" x1="49.4186" y1="62.6523" x2="57.7338" y2="69.368" gradientTransform="matrix(1 0 0 -1 0 140.24)">
				<stop  offset="0" style="stop-color:#7DA09C"/>
				<stop  offset="2.000000e-02" style="stop-color:#81A39F;stop-opacity:0.97"/>
				<stop  offset="0.37" style="stop-color:#B7CAC8;stop-opacity:0.56"/>
				<stop  offset="0.66" style="stop-color:#DEE7E6;stop-opacity:0.26"/>
				<stop  offset="0.88" style="stop-color:#F6F8F8;stop-opacity:7.000000e-02"/>
				<stop  offset="1" style="stop-color:#FFFFFF;stop-opacity:0"/>
			</linearGradient>
			<path class="st13" d="M49.3,79.1c3.4-1.6,6.6-3.6,9.6-5.9c-0.2-1.8-0.4-3.5-0.5-5.3c-3.6,3.2-7.5,6-11.6,8.5c0.6,1,1.2,2,1.9,2.9
				L49.3,79.1z"/>
			
				<linearGradient id="SVGID_13_" gradientUnits="userSpaceOnUse" x1="38.9429" y1="59.7722" x2="35.0317" y2="58.3918" gradientTransform="matrix(1 0 0 -1 0 140.24)">
				<stop  offset="0" style="stop-color:#7DA09C"/>
				<stop  offset="2.000000e-02" style="stop-color:#81A39F;stop-opacity:0.97"/>
				<stop  offset="0.34" style="stop-color:#B7CAC8;stop-opacity:0.56"/>
				<stop  offset="0.61" style="stop-color:#DEE7E6;stop-opacity:0.26"/>
				<stop  offset="0.82" style="stop-color:#F6F8F8;stop-opacity:7.000000e-02"/>
				<stop  offset="0.93" style="stop-color:#FFFFFF;stop-opacity:0"/>
			</linearGradient>
			<path class="st14" d="M39.8,79.6c-1.9,0.6-3.8,0.9-5.8,0.9v1.5c2.3,0,4.5-0.2,6.7-0.6c-0.2-0.4-0.4-0.8-0.6-1.2
				C40,80,39.9,79.9,39.8,79.6z"/>
			<g class="st15">
				
					<linearGradient id="SVGID_14_" gradientUnits="userSpaceOnUse" x1="136.2993" y1="88.5028" x2="136.2993" y2="68.1585" gradientTransform="matrix(1 0 0 -1 0 140.24)">
					<stop  offset="0" style="stop-color:#AA4E68;stop-opacity:0.8"/>
					<stop  offset="2.000000e-02" style="stop-color:#AF5971;stop-opacity:0.75"/>
					<stop  offset="0.18" style="stop-color:#D1A0AE;stop-opacity:0.43"/>
					<stop  offset="0.31" style="stop-color:#EAD4DA;stop-opacity:0.2"/>
					<stop  offset="0.42" style="stop-color:#F9F3F5;stop-opacity:5.000000e-02"/>
					<stop  offset="0.49" style="stop-color:#FFFFFF;stop-opacity:0"/>
					<stop  offset="0.56" style="stop-color:#F9F3F5;stop-opacity:5.000000e-02"/>
					<stop  offset="0.67" style="stop-color:#EAD4DA;stop-opacity:0.2"/>
					<stop  offset="0.81" style="stop-color:#D1A0AE;stop-opacity:0.43"/>
					<stop  offset="0.98" style="stop-color:#AF5971;stop-opacity:0.75"/>
					<stop  offset="1" style="stop-color:#AA4E68;stop-opacity:0.8"/>
				</linearGradient>
				<path class="st16" d="M133.6,74.6c6.2,0,17.4-3.6,17.4-11c0-6.6-9.3-14.2-20.9-14.2c-2.8,0-5.6,0.5-8.2,1.5l0,0
					c12-3.4,20.6,6.8,20.1,12.5c-0.3,3.9-4.6,10-14.6,10c-2,0-3.9-0.4-5.8-1.1l0.3,0.1l0,0C125.6,73.9,129.6,74.7,133.6,74.6z"/>
			</g>
			<path class="st0" d="M172.5,82.1c0.7-0.1,1.4-0.2,2.1-0.2c0.9-0.1,1.8,0.2,2.5,0.7c0.5,0.4,0.7,1,0.7,1.7c0,1-0.6,1.9-1.6,2.2
				l0,0c0.7,0.3,1.2,1,1.2,1.7c0.2,0.8,0.4,1.6,0.7,2.4H177c-0.3-0.7-0.4-1.4-0.6-2.1c-0.3-1.2-0.7-1.6-1.7-1.7h-1v3.7h-1.1
				L172.5,82.1z M173.6,86h1.1c1.2,0,1.9-0.6,1.9-1.6c0-1-0.8-1.6-2-1.6c-0.4,0-0.7,0-1.1,0.1L173.6,86z"/>
			<path class="st0" d="M180.3,87.7c-0.1,1.1,0.7,2.1,1.7,2.2c0.1,0,0.2,0,0.4,0c0.6,0,1.2-0.1,1.7-0.3l0.2,0.8
				c-0.6,0.3-1.3,0.4-2,0.4c-1.6,0.1-2.9-1.1-3-2.7c0-0.2,0-0.3,0-0.5c0-1.9,1.1-3.3,2.9-3.3c1.4,0,2.6,1.2,2.5,2.7
				c0,0.1,0,0.2,0,0.2c0,0.2,0,0.4,0,0.5L180.3,87.7z M183.6,86.9c0.1-0.9-0.5-1.7-1.4-1.8c-0.1,0-0.1,0-0.2,0
				c-1,0.1-1.7,0.9-1.7,1.8H183.6z"/>
			<path class="st0" d="M191.6,81.5V89c0,0.5,0,1.2,0,1.6h-1v-1.1l0,0c-0.4,0.8-1.2,1.3-2.1,1.2c-1.6,0-2.7-1.2-2.7-3.1
				c0-2.1,1.3-3.3,2.7-3.3c0.7,0,1.5,0.3,1.9,0.9l0,0v-3.8H191.6z M190.5,86.9c0-0.2,0-0.3,0-0.5c-0.2-0.8-0.8-1.3-1.6-1.3
				c-1.2,0-1.8,1-1.8,2.4s0.6,2.3,1.8,2.3c0.8,0,1.5-0.6,1.6-1.3c0-0.2,0-0.3,0-0.5L190.5,86.9z"/>
			<path class="st0" d="M194.4,87.7c-0.1,1.1,0.6,2.1,1.7,2.2c0.1,0,0.3,0,0.4,0c0.6,0,1.2-0.1,1.7-0.3l0.2,0.8
				c-0.7,0.3-1.4,0.4-2.1,0.4c-1.6,0.1-2.9-1.1-3-2.7c0-0.2,0-0.3,0-0.5c0-1.9,1.1-3.3,2.9-3.3c1.4,0,2.6,1.2,2.6,2.7
				c0,0.1,0,0.2,0,0.3c0,0.2,0,0.4,0,0.5L194.4,87.7z M197.7,86.9c0.1-0.9-0.5-1.7-1.3-1.8c-0.1,0-0.1,0-0.2,0
				c-1,0.1-1.7,0.9-1.7,1.8H197.7z"/>
			<path class="st0" d="M200.3,89.4c0.5,0.3,1,0.4,1.5,0.4c0.8,0,1.2-0.4,1.2-0.9s-0.3-0.8-1.1-1.1c-1.1-0.4-1.6-1-1.6-1.8
				c0-1.1,0.9-1.9,2-1.8c0,0,0.1,0,0.1,0c0.5,0,1,0.1,1.5,0.4l-0.3,0.8c-0.4-0.2-0.8-0.4-1.3-0.4c-0.7,0-1,0.4-1,0.9
				c0,0.5,0.4,0.7,1.1,1.1c1.1,0.4,1.6,0.9,1.6,1.9c0,1.1-0.9,1.9-2.3,1.9c-0.6,0-1.2-0.1-1.7-0.4L200.3,89.4z"/>
			<path class="st0" d="M207,82.6c0,0.4-0.3,0.7-0.7,0.7c-0.4,0-0.7-0.3-0.7-0.7c0,0,0,0,0,0c0-0.4,0.3-0.7,0.7-0.7c0,0,0,0,0,0
				C206.7,81.9,207,82.2,207,82.6C207.1,82.6,207.1,82.6,207,82.6z M205.8,90.6v-6.2h1.1v6.2H205.8z"/>
			<path class="st0" d="M214.4,89.7c0.1,1-0.2,2.1-0.9,2.8c-0.6,0.5-1.4,0.8-2.2,0.7c-0.7,0-1.4-0.2-2-0.5l0.3-0.9
				c0.5,0.3,1.2,0.5,1.8,0.5c1.1,0,2-0.6,2-2.2v-0.7l0,0c-0.4,0.7-1.2,1.1-2,1c-1.5,0-2.8-1.2-2.8-2.8c0-0.1,0-0.1,0-0.2
				c-0.2-1.6,1-3.1,2.6-3.3c0.1,0,0.1,0,0.2,0c0.8,0,1.5,0.4,1.9,1.1l0,0v-0.9h1c0,0.4,0,0.9,0,1.7L214.4,89.7z M213.3,86.8
				c0-0.2,0-0.3-0.1-0.5c-0.2-0.7-0.8-1.2-1.6-1.2c-1.1,0-1.8,0.9-1.8,2.3c0,1.2,0.6,2.2,1.8,2.2c0.7,0,1.3-0.5,1.5-1.2
				c0.1-0.2,0.1-0.4,0.1-0.6L213.3,86.8z"/>
			<path class="st0" d="M216.5,86c0-0.7,0-1.2,0-1.7h1l0.1,1l0,0c0.4-0.7,1.2-1.1,2-1.1c0.9,0,2.2,0.5,2.2,2.6v3.7h-1.1V87
				c0-1-0.4-1.8-1.4-1.8c-0.7,0-1.4,0.5-1.6,1.2c-0.1,0.2-0.1,0.3-0.1,0.5v3.7h-1.1V86z"/>
			<path class="st0" d="M225.1,82.6c0,0.4-0.3,0.7-0.6,0.7c0,0,0,0-0.1,0c-0.4,0-0.7-0.3-0.7-0.7c0,0,0,0,0,0c0-0.4,0.3-0.7,0.7-0.7
				c0,0,0,0,0,0C224.8,81.9,225.1,82.2,225.1,82.6C225.1,82.6,225.1,82.6,225.1,82.6z M223.9,90.6v-6.2h1.1v6.2H223.9z"/>
			<path class="st0" d="M227.2,86c0-0.7,0-1.2-0.1-1.7h1l0.1,1l0,0c0.4-0.7,1.2-1.1,2-1.1c0.9,0,2.2,0.5,2.2,2.6v3.7h-1.1V87
				c0-1-0.4-1.8-1.4-1.8c-0.7,0-1.3,0.5-1.5,1.2c-0.1,0.2-0.1,0.3-0.1,0.5v3.7h-1.1L227.2,86z"/>
			<path class="st0" d="M239.8,89.7c0.1,1-0.2,2.1-0.9,2.8c-0.6,0.5-1.4,0.8-2.2,0.7c-0.7,0-1.4-0.2-2-0.5l0.3-0.9
				c0.5,0.3,1.2,0.5,1.8,0.5c1.1,0,2-0.6,2-2.2v-0.7l0,0c-0.4,0.7-1.2,1.1-2,1c-1.5-0.1-2.7-1.4-2.6-2.9c0,0,0,0,0-0.1
				c-0.2-1.6,1-3.1,2.6-3.3c0.1,0,0.1,0,0.2,0c0.8,0,1.5,0.4,1.9,1.1l0,0v-0.9h1c0,0.4-0.1,0.9-0.1,1.7L239.8,89.7z M238.7,86.8
				c0-0.2,0-0.3,0-0.5c-0.2-0.7-0.8-1.2-1.6-1.2c-1.1,0-1.8,0.9-1.8,2.3c0,1.2,0.6,2.2,1.8,2.2c0.7,0,1.3-0.5,1.5-1.2
				c0.1-0.2,0.1-0.4,0.1-0.6L238.7,86.8z"/>
			<path class="st0" d="M246.3,82.9v1.5h1.6v0.9h-1.6v3.4c0,0.8,0.2,1.2,0.8,1.2c0.2,0,0.4,0,0.6-0.1v0.9c-0.3,0.1-0.7,0.2-1,0.2
				c-0.5,0-0.9-0.2-1.2-0.5c-0.3-0.5-0.5-1.1-0.4-1.6v-3.4h-1v-0.9h1v-1.2L246.3,82.9z"/>
			<path class="st0" d="M249.4,81.5h1.1v3.9l0,0c0.2-0.3,0.5-0.6,0.8-0.8c0.3-0.2,0.7-0.3,1.1-0.3c0.8,0,2.2,0.5,2.2,2.6v3.7h-1.1
				V87c0-1-0.4-1.8-1.4-1.8c-0.7,0-1.3,0.5-1.5,1.1c-0.1,0.2-0.1,0.4-0.1,0.5v3.7h-1.1V81.5z"/>
			<path class="st0" d="M257.4,87.7c-0.1,1.1,0.6,2.1,1.7,2.2c0.1,0,0.3,0,0.4,0c0.6,0,1.2-0.1,1.7-0.3l0.2,0.8
				c-0.7,0.3-1.4,0.4-2.1,0.4c-1.6,0.1-2.9-1.1-3-2.7c0-0.2,0-0.3,0-0.5c0-1.9,1.1-3.3,2.9-3.3c1.4,0,2.6,1.2,2.6,2.7
				c0,0.1,0,0.2,0,0.3c0,0.2,0,0.4,0,0.5L257.4,87.7z M260.7,86.9c0.1-0.9-0.5-1.7-1.3-1.8c-0.1,0-0.1,0-0.2,0
				c-1,0.1-1.7,0.9-1.7,1.8H260.7z"/>
			<path class="st0" d="M266.5,81.9h4.6v0.9h-3.5v2.9h3.2v0.9h-3.2v3.9h-1.1L266.5,81.9z"/>
			<path class="st0" d="M278.1,88.9c0,0.6,0,1.2,0,1.7h-1l-0.1-1l0,0c-0.4,0.7-1.2,1.1-2,1.1c-1,0-2.1-0.5-2.1-2.7v-3.6h1.1v3.4
				c0,1.2,0.4,2,1.4,2c0.7,0,1.3-0.5,1.5-1.1c0.1-0.2,0.1-0.4,0.1-0.6v-3.7h1.1L278.1,88.9z"/>
			<path class="st0" d="M281.6,82.9v1.5h1.6v0.9h-1.6v3.4c0,0.8,0.2,1.2,0.8,1.2c0.2,0,0.4,0,0.6-0.1v0.9c-0.3,0.1-0.7,0.2-1,0.2
				c-0.5,0-0.9-0.2-1.2-0.5c-0.3-0.5-0.5-1.1-0.4-1.6v-3.4h-1v-0.9h1v-1.2L281.6,82.9z"/>
			<path class="st0" d="M290,88.9c0,0.6,0,1.2,0.1,1.7h-1l-0.1-1l0,0c-0.4,0.7-1.2,1.1-2,1.1c-1,0-2.1-0.5-2.1-2.7v-3.6h1.1v3.4
				c0,1.2,0.4,2,1.4,2c0.7,0,1.3-0.5,1.5-1.1c0.1-0.2,0.1-0.4,0.1-0.6v-3.7h1.1L290,88.9z"/>
			<path class="st0" d="M292.2,86.3c0-0.7,0-1.4,0-1.9h1v1.2l0,0c0.2-0.8,0.9-1.3,1.7-1.3c0.1,0,0.2,0,0.3,0v1.1c-0.1,0-0.3,0-0.4,0
				c-0.8,0-1.4,0.6-1.5,1.4c0,0.2,0,0.4,0,0.5v3.3h-1.1V86.3z"/>
			<path class="st0" d="M297.2,87.7c-0.1,1.1,0.6,2.1,1.7,2.2c0.1,0,0.3,0,0.4,0c0.6,0,1.2-0.1,1.7-0.3l0.2,0.8
				c-0.7,0.3-1.4,0.4-2.1,0.4c-1.6,0.1-2.9-1.1-3-2.7c0-0.2,0-0.3,0-0.5c0-1.9,1.1-3.3,2.9-3.3c1.4,0,2.6,1.2,2.6,2.7
				c0,0.1,0,0.2,0,0.3c0,0.2,0,0.4,0,0.5L297.2,87.7z M300.5,86.9c0.1-0.9-0.5-1.7-1.4-1.8c-0.1,0-0.1,0-0.2,0
				c-1,0.1-1.7,0.9-1.7,1.8H300.5z"/>
			<path class="st0" d="M306.3,81.9h1.1v7.7h3.6v0.9h-4.8L306.3,81.9z"/>
			<path class="st0" d="M313.8,82.6c0,0.4-0.3,0.7-0.6,0.7c0,0,0,0-0.1,0c-0.4,0-0.7-0.3-0.7-0.6c0,0,0,0,0,0c0-0.4,0.3-0.7,0.7-0.7
				C313.5,81.9,313.8,82.3,313.8,82.6L313.8,82.6z M312.6,90.6v-6.2h1.1v6.2H312.6z"/>
			<path class="st0" d="M316,90.6v-5.3h-0.8v-0.9h0.9v-0.3c-0.1-0.8,0.2-1.6,0.7-2.2c0.4-0.4,0.9-0.6,1.5-0.6c0.3,0,0.7,0.1,1,0.2
				l-0.2,0.9c-0.2-0.1-0.5-0.1-0.7-0.1c-1,0-1.2,0.8-1.2,1.8v0.3h1.5v0.9h-1.5v5.3L316,90.6z"/>
			<path class="st0" d="M320.5,87.7c-0.1,1.1,0.7,2.1,1.7,2.2c0.1,0,0.2,0,0.4,0c0.6,0,1.2-0.1,1.7-0.3l0.2,0.8
				c-0.6,0.3-1.3,0.4-2,0.4c-1.6,0.1-2.9-1.1-3-2.7c0-0.2,0-0.3,0-0.5c0-1.9,1.1-3.3,2.9-3.3c1.4,0,2.6,1.2,2.5,2.7
				c0,0.1,0,0.2,0,0.2c0,0.2,0,0.4,0,0.5L320.5,87.7z M323.8,86.9c0.1-0.9-0.5-1.7-1.4-1.8c-0.1,0-0.1,0-0.2,0
				c-1,0.1-1.7,0.9-1.7,1.8H323.8z"/>
		</g>
	</g>
</g>
</svg>
