<?xml version="1.0" encoding="utf-8"?>
<!-- Generator: Adobe Illustrator 27.2.0, SVG Export Plug-In . SVG Version: 6.00 Build 0)  -->
<svg version="1.1" id="レイヤー_1" xmlns="http://www.w3.org/2000/svg" xmlns:xlink="http://www.w3.org/1999/xlink" x="0px"
	 y="0px" viewBox="0 0 200 70" style="enable-background:new 0 0 200 70;" xml:space="preserve">
<style type="text/css">
	.st0{fill:#0096FA;}
</style>
<g>
	<path class="st0" d="M73.6,26.8c-3.2-2.8-7.7-4.4-12.9-4.4C47.1,22.4,37.9,33,37.9,33l2.6,4.1c0,0,1.4,0.1,0.7-2.3
		c0.7-1.2,1.9-2.9,4.5-4.8c0,0,0,26.1,0,27.5c-1.1,0.3-2.5,0.9-1.5,1.9c1.7,0,6.2,0,7.5,0c1-1-0.6-1.6-1.5-1.9c0-1.1,0-6.5,0-6.5
		s5.1,2,10.6,2c4.9,0,9.3-1.4,12.5-4c3.3-2.6,5.4-6.5,5.4-10.9S76.8,29.6,73.6,26.8z M69.7,46.6c-2.3,2.2-5.6,3.7-9.4,3.7
		c-4.2,0-7.8-0.8-10.2-2c0,0,0-0.7,0-5.9c0-5.6,0-14.7,0-14.7c2.6-1.8,6.8-3,10.2-3c4.1,0,7.4,1.6,9.5,3.9c2.2,2.4,3.4,5.5,3.4,9.2
		C73.2,41.4,71.9,44.4,69.7,46.6z"/>
	<path class="st0" d="M85.3,22.4h-1.5c-0.7,0-1.2,0.5-1.2,1.2v28.1c0,0.7,0.5,1.2,1.2,1.2h1.5c0.7,0,1.2-0.5,1.2-1.2V23.6
		C86.5,23,86,22.4,85.3,22.4z"/>
	<path class="st0" d="M125,22.4h-1.5c-0.7,0-1.2,0.5-1.2,1.2v28.1c0,0.7,0.5,1.2,1.2,1.2h1.5c0.7,0,1.2-0.5,1.2-1.2V23.6
		C126.3,23,125.7,22.4,125,22.4z"/>
	<path class="st0" d="M160.8,22.4c-1,0-0.3,0-1.4,0c-1.1,0-1.4,0.1-1.9,1.1C157,24.6,146,46.4,146,46.4s-11.1-21.8-11.6-22.8
		s-0.8-1.1-1.9-1.1c-1.2,0-0.4,0-1.4,0s-1.6,0.5-1,1.6c0.6,1.2,14.2,27.8,14.2,27.8c0.4,0.7,1,1.1,1.7,1.1s1.4-0.4,1.7-1.1l0,0
		c0,0,13.6-26.6,14.2-27.8C162.4,22.9,161.9,22.4,160.8,22.4z"/>
	<path class="st0" d="M113,51.9c0.6,0.7,1,1,2.1,1s0.8,0,2.3,0c1.4,0,0.9-0.7,0.5-1.2c-1-1.3-11-14-11-14s10.4-12.8,11.4-14.1
		c0.4-0.5,0.9-1.2-0.5-1.2s-1.2,0-2.3,0c-1.1,0-1.5,0.3-2.1,1s-9,11.1-9,11.1s-8.4-10.4-9-11.1s-1-1-2.1-1s-0.8,0-2.3,0
		c-1.4,0-0.9,0.7-0.5,1.2c1,1.3,11.4,14.1,11.4,14.1s-10.3,12.7-11.3,14c-0.4,0.5-0.9,1.2,0.5,1.2s1.2,0,2.3,0c1.1,0,1.5-0.3,2.1-1
		s8.9-11,8.9-11S112.5,51.2,113,51.9z"/>
	<path class="st0" d="M84.5,10.6c-0.9,0-1.7,0.3-2.3,0.9c-0.6,0.6-0.9,1.4-0.9,2.3s0.3,1.7,0.9,2.3s1.4,0.9,2.3,0.9s1.7-0.3,2.3-0.9
		c0.6-0.6,0.9-1.4,0.9-2.3c0-0.9-0.3-1.7-0.9-2.3C86.2,10.9,85.4,10.6,84.5,10.6z"/>
	<path class="st0" d="M124.3,10.6c-0.9,0-1.7,0.3-2.3,0.9c-0.6,0.6-0.9,1.4-0.9,2.3s0.3,1.7,0.9,2.3s1.4,0.9,2.3,0.9
		s1.7-0.3,2.3-0.9c0.6-0.6,0.9-1.4,0.9-2.3c0-0.9-0.3-1.7-0.9-2.3C125.9,10.9,125.2,10.6,124.3,10.6z"/>
</g>
</svg>
